<svg xmlns="http://www.w3.org/2000/svg" viewBox="0 0 512 512">
  <defs>
    <linearGradient id="bg" x1="0" y1="0" x2="1" y2="1">
      <stop offset="0" stop-color="#a5b4fc"/>
      <stop offset="1" stop-color="#6366f1"/>
    </linearGradient>
    <linearGradient id="top" x1="0" y1="0" x2="0" y2="1">
      <stop offset="0" stop-color="#4f46e5"/>
      <stop offset="1" stop-color="#6366f1"/>
    </linearGradient>
    <radialGradient id="shine" cx=".5" cy=".4" r=".6">
      <stop offset="0" stop-color="#ffffff" stop-opacity=".6"/>
      <stop offset="1" stop-color="#ffffff" stop-opacity="0"/>
    </radialGradient>
  </defs>
  <rect width="512" height="512" rx="110" fill="url(#bg)"/>
  <rect x="64" y="100" width="384" height="340" rx="44" fill="#ffffff" opacity=".15"/>
  <rect x="80" y="120" width="352" height="300" rx="36" fill="#ffffff"/>
  <rect x="80" y="120" width="352" height="76" rx="36" fill="url(#top)"/>
  <rect x="80" y="180" width="352" height="16" fill="url(#top)"/>
  <circle cx="148" cy="140" r="14" fill="#fde68a"/>
  <circle cx="364" cy="140" r="14" fill="#fde68a"/>
  <rect x="142" y="98" width="12" height="34" rx="4" fill="#312e81"/>
  <rect x="358" y="98" width="12" height="34" rx="4" fill="#312e81"/>
  <circle cx="256" cy="320" r="92" fill="#eef2ff"/>
  <circle cx="256" cy="320" r="80" fill="#ffffff" stroke="#c7d2fe" stroke-width="4"/>
  <g stroke="#6366f1" stroke-width="3" stroke-linecap="round">
    <line x1="256" y1="248" x2="256" y2="258"/>
    <line x1="256" y1="382" x2="256" y2="392"/>
    <line x1="184" y1="320" x2="194" y2="320"/>
    <line x1="318" y1="320" x2="328" y2="320"/>
  </g>
  <path d="M256 270 V320 L294 340" stroke="#4338ca" stroke-width="9" stroke-linecap="round" fill="none"/>
  <circle cx="256" cy="320" r="7" fill="#4338ca"/>
  <text x="256" y="226" font-family="system-ui,sans-serif" font-size="36" font-weight="700" text-anchor="middle" fill="#ffffff">근태</text>
  <rect width="512" height="512" rx="110" fill="url(#shine)"/>
</svg>
